<?xml version="1.0" encoding="UTF-8" standalone="no"?>
<svg
   xmlns:dc="http://purl.org/dc/elements/1.1/"
   xmlns:cc="http://creativecommons.org/ns#"
   xmlns:rdf="http://www.w3.org/1999/02/22-rdf-syntax-ns#"
   xmlns:svg="http://www.w3.org/2000/svg"
   xmlns="http://www.w3.org/2000/svg"
   xmlns:sodipodi="http://sodipodi.sourceforge.net/DTD/sodipodi-0.dtd"
   xmlns:inkscape="http://www.inkscape.org/namespaces/inkscape"
   version="1.1"
   viewBox="0 0 32 32"
   xml:space="preserve"
   id="svg15"
   sodipodi:docname="disable-image.svg"
   inkscape:version="0.92.3 (2405546, 2018-03-11)"
   inkscape:export-filename="C:\Users\Timo\Documents\Archiv\Studium\repro\orgui\orgui\resources\icons\disable-image.png"
   inkscape:export-xdpi="96"
   inkscape:export-ydpi="96"><metadata
     id="metadata19"><rdf:RDF><cc:Work
         rdf:about=""><dc:format>image/svg+xml</dc:format><dc:type
           rdf:resource="http://purl.org/dc/dcmitype/StillImage" /><dc:title></dc:title></cc:Work></rdf:RDF></metadata><sodipodi:namedview
     pagecolor="#ffffff"
     bordercolor="#666666"
     borderopacity="1"
     objecttolerance="10"
     gridtolerance="10"
     guidetolerance="10"
     inkscape:pageopacity="0"
     inkscape:pageshadow="2"
     inkscape:window-width="3840"
     inkscape:window-height="2066"
     id="namedview17"
     showgrid="false"
     inkscape:zoom="14.75"
     inkscape:cx="-6.3512836"
     inkscape:cy="-4.8653757"
     inkscape:window-x="-11"
     inkscape:window-y="-11"
     inkscape:window-maximized="1"
     inkscape:current-layer="svg15" /><defs
     id="defs5"><filter
       id="a"
       x="-.1418"
       y="-.14627"
       width="1.2836"
       height="1.2925"
       color-interpolation-filters="sRGB"><feGaussianBlur
         stdDeviation="0.9522046"
         id="feGaussianBlur2" /></filter></defs><rect
     style="fill:#7f7f7f;fill-opacity:1;stroke:#f7941e;stroke-width:1;stroke-linecap:butt;stroke-linejoin:miter;stroke-miterlimit:4;stroke-dasharray:none;stroke-dashoffset:0;stroke-opacity:1"
     id="rect4529"
     width="20.372881"
     height="20.983051"
     x="4.9491525"
     y="4.6440678" /><g
     transform="matrix(1.2430411,0,0,1.244417,1.104871,1.4601658)"
     id="g13"
     style="stroke-width:0.80403376"><path
       transform="matrix(0.68044,0,0,0.68044,2.0969,3.5975)"
       d="m 26.957,11.637 c -0.39375,0.002 -0.79775,0.17675 -1.0938,0.46875 l -5.375,5.25 -5.4375,-5.2188 c -0.602,-0.58 -1.5592,-0.583 -2.1562,0 -0.598,0.584 -0.602,1.547 0,2.125 l 5.4375,5.2187 -5.375,5.25 c -0.599,0.583 -0.605,1.5168 0,2.0938 0.601,0.577 1.5905,0.586 2.1875,0 l 5.375,-5.25 5.4375,5.1875 c 0.605,0.578 1.5582,0.584 2.1562,0 0.596,-0.58 0.598,-1.5148 0,-2.0938 l -5.4375,-5.2188 5.375,-5.25 c 0.594,-0.584 0.602,-1.548 0,-2.125 -0.301,-0.29 -0.7,-0.4395 -1.0938,-0.4375 z"
       id="path9"
       inkscape:connector-curvature="0"
       style="stroke-width:0.80403376;filter:url(#a)" /><path
       d="m 20.137,10.881 c -0.26792,0.0014 -0.54282,0.099 -0.74423,0.29769 l -3.6574,3.5723 -3.6999,-3.5298 c -0.40962,-0.39466 -1.061,-0.3967 -1.4672,0 -0.4069,0.39738 -0.40962,1.0314 0,1.4247 l 3.6999,3.551 -3.6574,3.5723 c -0.40758,0.3967 -0.41167,1.0533 0,1.4459 0.40894,0.39261 1.0822,0.37747 1.4885,-0.02126 l 3.6574,-3.5723 3.6999,3.551 c 0.41166,0.39329 1.0603,0.39738 1.4672,0 0.40554,-0.39465 0.4069,-1.052 0,-1.4459 l -3.6999,-3.551 3.6574,-3.5723 c 0.40418,-0.39738 0.40962,-1.0321 0,-1.4247 -0.20481,-0.19733 -0.47631,-0.29905 -0.74423,-0.29769 z"
       stroke-miterlimit="10"
       id="path11"
       inkscape:connector-curvature="0"
       style="fill:#ff0000;stroke:#ff4042;stroke-width:0.16412741;stroke-miterlimit:10" /></g></svg>