<?xml version="1.0" encoding="UTF-8" standalone="no"?>
<svg
   xmlns:dc="http://purl.org/dc/elements/1.1/"
   xmlns:cc="http://creativecommons.org/ns#"
   xmlns:rdf="http://www.w3.org/1999/02/22-rdf-syntax-ns#"
   xmlns:svg="http://www.w3.org/2000/svg"
   xmlns="http://www.w3.org/2000/svg"
   xmlns:sodipodi="http://sodipodi.sourceforge.net/DTD/sodipodi-0.dtd"
   xmlns:inkscape="http://www.inkscape.org/namespaces/inkscape"
   version="1.1"
   viewBox="0 0 32 32"
   xml:space="preserve"
   id="svg53"
   sodipodi:docname="document-nx-open.svg"
   inkscape:version="0.92.3 (2405546, 2018-03-11)"
   inkscape:export-filename="C:\Users\Timo\Documents\Archiv\Studium\repro\orgui\orgui\resources\icons\document-nx-open.png"
   inkscape:export-xdpi="96"
   inkscape:export-ydpi="96"><metadata
     id="metadata57"><rdf:RDF><cc:Work
         rdf:about=""><dc:format>image/svg+xml</dc:format><dc:type
           rdf:resource="http://purl.org/dc/dcmitype/StillImage" /><dc:title></dc:title></cc:Work></rdf:RDF></metadata><sodipodi:namedview
     pagecolor="#ffffff"
     bordercolor="#666666"
     borderopacity="1"
     objecttolerance="10"
     gridtolerance="10"
     guidetolerance="10"
     inkscape:pageopacity="0"
     inkscape:pageshadow="2"
     inkscape:window-width="1833"
     inkscape:window-height="1433"
     id="namedview55"
     showgrid="false"
     inkscape:zoom="7.375"
     inkscape:cx="16"
     inkscape:cy="16"
     inkscape:window-x="0"
     inkscape:window-y="0"
     inkscape:window-maximized="0"
     inkscape:current-layer="svg53" /><defs
     id="defs5"><filter
       id="c"
       x="-.32558"
       y="-.40255"
       width="1.6512"
       height="1.8051"
       color-interpolation-filters="sRGB"><feGaussianBlur
         stdDeviation="3.0979788"
         id="feGaussianBlur2" /></filter></defs><path
     d="m 26.494,25.327 c 0.161,0.526 -0.149,1.033 -0.691,1.128 l -16.584,2.9 C 8.677,29.45 8.102,29.097 7.94,28.571 L 3.743,14.942 c -0.162,-0.525 0.149,-1.033 0.69,-1.128 l 16.583,-2.898 c 0.542,-0.095 1.118,0.258 1.279,0.783 z"
     id="path7"
     inkscape:connector-curvature="0"
     transform="matrix(0.75077049,0,0,0.74381818,0.01150841,1.6805688)"
     style="opacity:0.5;stroke-width:1.3381753;filter:url(#c)" /><path
     d="M 13.872233,24.824471"
     stroke-miterlimit="10"
     id="path9"
     inkscape:connector-curvature="0"
     style="stroke:#ffffff;stroke-width:0.50999999;stroke-miterlimit:10" /><linearGradient
     id="d"
     x1="7.8379"
     x2="18.125"
     y1="15.27"
     y2="23.115"
     gradientUnits="userSpaceOnUse"><stop
       stop-color="#dedfe3"
       offset="0"
       id="stop11" /><stop
       stop-color="#97989c"
       offset=".3104"
       id="stop13" /><stop
       stop-color="#626365"
       offset=".558"
       id="stop15" /><stop
       stop-color="#343435"
       offset=".7327"
       id="stop17" /><stop
       offset=".8188"
       id="stop19" /></linearGradient><path
     d="m 18.772512,20.176352 c 0.120874,0.391248 -0.111865,0.768364 -0.518782,0.839027 L 5.802952,23.172451 C 5.3960344,23.243114 4.9643413,22.980546 4.8427165,22.589298 L 1.6917328,12.4518 C 1.5701079,12.061295 1.8035976,11.683436 2.2097644,11.612773 L 14.659791,9.4571879 c 0.406918,-0.070663 0.839362,0.1919051 0.960236,0.5824101 z"
     id="path22"
     inkscape:connector-curvature="0"
     style="fill:url(#d);stroke-width:1" /><path
     d="m 18.772512,20.176352 c 0.120874,0.391248 -0.111865,0.768364 -0.518782,0.839027 L 5.802952,23.172451 C 5.3960344,23.243114 4.9643413,22.980546 4.8427165,22.589298 L 1.6917328,12.4518 C 1.5701079,12.061295 1.8035976,11.683436 2.2097644,11.612773 L 14.659791,9.4571879 c 0.406918,-0.070663 0.839362,0.1919051 0.960236,0.5824101 z"
     stroke-miterlimit="10"
     id="path24"
     inkscape:connector-curvature="0"
     style="fill:none;stroke:#414042;stroke-width:0.10000001;stroke-miterlimit:10" /><linearGradient
     id="e"
     x1="7.0898"
     x2="29.94"
     y1="20.499"
     y2="20.499"
     gradientUnits="userSpaceOnUse"><stop
       stop-color="#f1f2f2"
       offset="0"
       id="stop26" /><stop
       stop-color="#f2e7db"
       offset=".0395"
       id="stop28" /><stop
       stop-color="#f4d3ae"
       offset=".1471"
       id="stop30" /><stop
       stop-color="#f5c188"
       offset=".2586"
       id="stop32" /><stop
       stop-color="#f5b36a"
       offset=".3718"
       id="stop34" /><stop
       stop-color="#f6a74f"
       offset=".4871"
       id="stop36" /><stop
       stop-color="#f79e39"
       offset=".6051"
       id="stop38" /><stop
       stop-color="#f79829"
       offset=".727"
       id="stop40" /><stop
       stop-color="#f79520"
       offset=".8552"
       id="stop42" /><stop
       stop-color="#f7941e"
       offset="1"
       id="stop44" /></linearGradient><path
     d="m 19.09234,20.197922 c -0.143397,0.383811 -0.593859,0.75572 -1.000026,0.827126 L 5.8570074,23.170964 C 5.4500898,23.243114 5.2353695,22.987241 5.3787666,22.60343 l 3.3506887,-8.942182 c 0.1433972,-0.38381 0.5938595,-0.755719 1.0007771,-0.827126 L 21.967041,10.685976 c 0.406166,-0.07141 0.621638,0.184466 0.47824,0.567533 z"
     id="path47"
     inkscape:connector-curvature="0"
     style="fill:url(#e);stroke-width:1" /><path
     d="m 19.09234,20.197922 c -0.143397,0.383811 -0.593859,0.75572 -1.000026,0.827126 L 5.8570074,23.170964 C 5.4500898,23.243114 5.2353695,22.987241 5.3787666,22.60343 l 3.3506887,-8.942182 c 0.1433972,-0.38381 0.5938595,-0.755719 1.0007771,-0.827126 L 21.967041,10.685976 c 0.406166,-0.07141 0.621638,0.184466 0.47824,0.567533 z"
     stroke-miterlimit="10"
     id="path49"
     inkscape:connector-curvature="0"
     style="fill:none;stroke:#f7941e;stroke-width:0.10000001;stroke-miterlimit:10" /><path
     d="M 19.594606,6.3368706 C 17.197396,2.4638093 13.270115,4.1500452 13.270115,4.1500452 L 7.39909,6.7645661 c 0,0 7.934893,-3.5502442 11.106899,0.1926489 -1.069098,0.6567914 -1.882933,1.2815987 -1.882933,1.2815987 l 3.465557,0.7750585 0.142646,-0.017852 C 20.210988,8.830893 21.801871,5.5045381 21.801871,5.5045381 21.133685,5.6109041 20.34913,5.9419032 19.594606,6.3368706 Z"
     stroke-miterlimit="10"
     id="path51"
     inkscape:connector-curvature="0"
     style="fill:#00a651;stroke:#000000;stroke-width:0.10000001;stroke-miterlimit:10" /><text
     xml:space="preserve"
     style="font-size:14.3210001px;line-height:125%;font-family:Sans;letter-spacing:0px;word-spacing:0px;fill:#000000"
     word-spacing="0px"
     letter-spacing="0px"
     font-size="14.321px"
     y="29.526297"
     x="10.076466"
     id="text3032"><tspan
       font-weight="bold"
       y="29.526297"
       x="10.076466"
       id="tspan3034"
       style="font-weight:bold">nx</tspan></text>
</svg>