<?xml version="1.0" encoding="UTF-8" standalone="no"?>
<svg
   xmlns:dc="http://purl.org/dc/elements/1.1/"
   xmlns:cc="http://creativecommons.org/ns#"
   xmlns:rdf="http://www.w3.org/1999/02/22-rdf-syntax-ns#"
   xmlns:svg="http://www.w3.org/2000/svg"
   xmlns="http://www.w3.org/2000/svg"
   xmlns:sodipodi="http://sodipodi.sourceforge.net/DTD/sodipodi-0.dtd"
   xmlns:inkscape="http://www.inkscape.org/namespaces/inkscape"
   version="1.1"
   viewBox="0 0 32 32"
   xml:space="preserve"
   id="svg10"
   sodipodi:docname="document-nx-save.svg"
   inkscape:version="0.92.3 (2405546, 2018-03-11)"
   inkscape:export-filename="C:\Users\Timo\Documents\Archiv\Studium\repro\orgui\orgui\resources\icons\document-nx-save.png"
   inkscape:export-xdpi="96"
   inkscape:export-ydpi="96"><metadata
     id="metadata16"><rdf:RDF><cc:Work
         rdf:about=""><dc:format>image/svg+xml</dc:format><dc:type
           rdf:resource="http://purl.org/dc/dcmitype/StillImage" /><dc:title></dc:title></cc:Work></rdf:RDF></metadata><defs
     id="defs14" /><sodipodi:namedview
     pagecolor="#ffffff"
     bordercolor="#666666"
     borderopacity="1"
     objecttolerance="10"
     gridtolerance="10"
     guidetolerance="10"
     inkscape:pageopacity="0"
     inkscape:pageshadow="2"
     inkscape:window-width="1592"
     inkscape:window-height="1132"
     id="namedview12"
     showgrid="false"
     inkscape:zoom="7.375"
     inkscape:cx="16"
     inkscape:cy="16"
     inkscape:window-x="1741"
     inkscape:window-y="498"
     inkscape:window-maximized="0"
     inkscape:current-layer="svg10" /><path
     d="m 18.463164,18.504866 c 0,0.198213 -0.162174,0.360388 -0.360387,0.360388 H 2.9549307 c -0.1982136,0 -0.3603883,-0.162175 -0.3603883,-0.360388 V 3.3591832 c 0,-0.1982136 0.1621747,-0.3603883 0.3603883,-0.3603883 H 14.682691 c 0.198213,0 0.472829,0.1167658 0.610497,0.2594796 l 2.919867,3.0279833 c 0.136947,0.1427137 0.250109,0.4216544 0.250109,0.6198682 z"
     id="path2"
     inkscape:connector-curvature="0"
     style="stroke-width:1" /><path
     d="m 16.813306,16.436236 c 0,0.118928 -0.0973,0.216233 -0.216233,0.216233 H 4.7013729 c -0.1189281,0 -0.2162329,-0.09731 -0.2162329,-0.216233 v -5.056249 c 0,-0.118928 0.097305,-0.216233 0.2162329,-0.216233 H 16.597073 c 0.118929,0 0.216233,0.09731 0.216233,0.216233 z"
     id="path4"
     inkscape:connector-curvature="0"
     style="fill:#ffffff;stroke-width:1" /><path
     d="m 13.75433,6.8801783 c 0,0.1189274 -0.0973,0.2162328 -0.216233,0.2162328 H 4.7013729 C 4.5824448,7.0964111 4.48514,6.9991061 4.48514,6.8801783 V 2.9807754 c 0,-0.1189282 0.097305,-0.216233 0.2162329,-0.216233 h 8.8367241 c 0.118929,0 0.216233,0.097305 0.216233,0.216233 z"
     id="path6"
     inkscape:connector-curvature="0"
     style="fill:#ffffff;stroke-width:1" /><rect
     x="9.7878942"
     y="2.9987948"
     width="1.5395792"
     height="3.0827622"
     id="rect8"
     style="stroke-width:1" /><text
     xml:space="preserve"
     style="font-size:14.3210001px;line-height:125%;font-family:Sans;letter-spacing:0px;word-spacing:0px;fill:#000000"
     word-spacing="0px"
     letter-spacing="0px"
     font-size="14.321px"
     y="29.255114"
     x="10.076468"
     id="text3032"><tspan
       font-weight="bold"
       y="29.255114"
       x="10.076468"
       id="tspan3034"
       style="font-weight:bold">nx</tspan></text>
</svg>