<?xml version="1.0" encoding="UTF-8" standalone="no"?>
<svg
   id="svg16"
   enable-background="new 0 0 32 32"
   version="1.1"
   viewBox="0 0 32 32"
   xml:space="preserve"
   sodipodi:docname="lattice-all-link.svg"
   inkscape:version="1.3.2 (091e20e, 2023-11-25, custom)"
   inkscape:export-filename="lattice-all-link.png"
   inkscape:export-xdpi="96"
   inkscape:export-ydpi="96"
   xmlns:inkscape="http://www.inkscape.org/namespaces/inkscape"
   xmlns:sodipodi="http://sodipodi.sourceforge.net/DTD/sodipodi-0.dtd"
   xmlns="http://www.w3.org/2000/svg"
   xmlns:svg="http://www.w3.org/2000/svg"
   xmlns:rdf="http://www.w3.org/1999/02/22-rdf-syntax-ns#"
   xmlns:cc="http://creativecommons.org/ns#"
   xmlns:dc="http://purl.org/dc/elements/1.1/"><defs
   id="defs10"><marker
     style="overflow:visible"
     id="marker50"
     refX="0"
     refY="0"
     orient="auto-start-reverse"
     inkscape:stockid="Triangle arrow"
     markerWidth="0.7"
     markerHeight="0.7"
     viewBox="0 0 1 1"
     inkscape:isstock="true"
     inkscape:collect="always"
     preserveAspectRatio="xMidYMid"><path
       transform="scale(0.5)"
       style="fill:context-stroke;fill-rule:evenodd;stroke:context-stroke;stroke-width:1pt"
       d="M 5.77,0 -2.88,5 V -5 Z"
       id="path50" /></marker><marker
     style="overflow:visible"
     id="Triangle"
     refX="0"
     refY="0"
     orient="auto-start-reverse"
     inkscape:stockid="Triangle arrow"
     markerWidth="0.7"
     markerHeight="0.7"
     viewBox="0 0 1 1"
     inkscape:isstock="true"
     inkscape:collect="always"
     preserveAspectRatio="xMidYMid"><path
       transform="scale(0.5)"
       style="fill:context-stroke;fill-rule:evenodd;stroke:context-stroke;stroke-width:1pt"
       d="M 5.77,0 -2.88,5 V -5 Z"
       id="path135" /></marker><inkscape:path-effect
     effect="fill_between_many"
     method="originald"
     linkedpaths="#path34,0,1|#path35,0,1|"
     id="path-effect36" /><clipPath
     clipPathUnits="userSpaceOnUse"
     id="clipPath47"><rect
       style="fill:#878787;fill-opacity:1;stroke:none;stroke-width:0.768;stroke-opacity:1"
       id="rect48"
       width="18.605747"
       height="6.5849319"
       x="-21.437193"
       y="5.9662132" /></clipPath><clipPath
     clipPathUnits="userSpaceOnUse"
     id="clipPath50"><rect
       style="fill:#878787;fill-opacity:1;stroke:none;stroke-width:0.768;stroke-opacity:1"
       id="rect50"
       width="18.605747"
       height="6.5849319"
       x="-21.437193"
       y="-0.6187191" /></clipPath></defs><sodipodi:namedview
   pagecolor="#ffffff"
   bordercolor="#666666"
   borderopacity="1"
   objecttolerance="10"
   gridtolerance="10"
   guidetolerance="10"
   inkscape:pageopacity="0"
   inkscape:pageshadow="2"
   inkscape:window-width="3840"
   inkscape:window-height="2054"
   id="namedview8"
   showgrid="false"
   inkscape:zoom="22.627417"
   inkscape:cx="21.677242"
   inkscape:cy="22.185475"
   inkscape:window-x="-11"
   inkscape:window-y="-11"
   inkscape:window-maximized="1"
   inkscape:current-layer="svg16"
   inkscape:snap-global="false"
   inkscape:showpageshadow="2"
   inkscape:pagecheckerboard="0"
   inkscape:deskcolor="#d1d1d1"
   showguides="true" /><metadata
   id="metadata22"><rdf:RDF><cc:Work
       rdf:about=""><dc:format>image/svg+xml</dc:format><dc:type
         rdf:resource="http://purl.org/dc/dcmitype/StillImage" /></cc:Work></rdf:RDF></metadata><path
   style="fill:none;fill-opacity:1;stroke:#000000;stroke-width:0.768001;stroke-opacity:1"
   d="m 10.474816,28.078498 -0.04261,-9.031946 5.943332,-4.303054 H 28.58173 v 8.797621 l -5.858119,4.537379 z"
   id="path30"
   sodipodi:nodetypes="ccccccc" /><path
   style="fill:none;fill-opacity:1;stroke:#000000;stroke-width:0.768001;stroke-opacity:1"
   d="m 28.581733,14.743498 -5.858119,4.303054 H 10.432208"
   id="path31" /><path
   style="fill:none;fill-opacity:1;stroke:#000000;stroke-width:0.768001;stroke-opacity:1"
   d="m 22.723615,18.923673 -10e-7,9.154825"
   id="path32"
   sodipodi:nodetypes="cc" />

<circle
   id="path20"
   style="fill:#ec8407;fill-opacity:1;stroke:none;stroke-width:0.999999"
   cx="10.474815"
   cy="19.003742"
   r="1.7519248" /><circle
   id="path21"
   style="fill:#ec8407;fill-opacity:1;stroke:none;stroke-width:0.999999"
   cx="16.37554"
   cy="14.700691"
   r="1.7519248" /><circle
   id="path22"
   style="fill:#ec8407;fill-opacity:1;stroke:none;stroke-width:0.999999"
   cx="28.581734"
   cy="14.700691"
   r="1.7519248" /><circle
   id="path23"
   style="fill:#ec8407;fill-opacity:1;stroke:none;stroke-width:0.999999"
   cx="28.581734"
   cy="23.541122"
   r="1.7519248" /><circle
   id="path24"
   style="fill:#ec8407;fill-opacity:1;stroke:none;stroke-width:0.999999"
   cx="22.723616"
   cy="28.078503"
   r="1.7519248" /><circle
   id="path25"
   style="fill:#ec8407;fill-opacity:1;stroke:none;stroke-width:0.999999"
   cx="25.663324"
   cy="21.39806"
   r="1.7519248" /><circle
   id="path26"
   style="fill:#ec8407;fill-opacity:1;stroke:none;stroke-width:0.999999"
   cx="22.723616"
   cy="19.003742"
   r="1.7519248" /><circle
   id="path27"
   style="fill:#ec8407;fill-opacity:1;stroke:none;stroke-width:0.999999"
   cx="19.390509"
   cy="16.926107"
   r="1.7519248" /><circle
   id="path28"
   style="fill:#ec8407;fill-opacity:1;stroke:none;stroke-width:0.999999"
   cx="16.545961"
   cy="23.437632"
   r="1.7519248" /><circle
   id="path29"
   style="fill:#ec8407;fill-opacity:1;stroke:none;stroke-width:0.999999"
   cx="10.474815"
   cy="28.078503"
   r="1.7519248" /><path
   style="fill:none;fill-opacity:1;stroke:#000000;stroke-width:1.3;stroke-opacity:1;marker-start:url(#Triangle);marker-end:url(#marker50);stroke-dasharray:none"
   d="M 4.3385196,27.582258 V 15.789155"
   id="path33" /><g
   id="g1"
   transform="translate(-0.0278919)"><g
     id="g43"
     transform="translate(31.831225)"
     clip-path="url(#clipPath50)"><path
       style="fill:#878787;fill-opacity:1;stroke:none;stroke-width:0.768;stroke-opacity:1"
       d="m -14.98733,10.647916 c -0.751726,-0.07879 -1.586474,-0.4437 -2.166822,-0.9472348 -0.434707,-0.3771707 -0.899613,-1.054195 -1.115076,-1.6352445 -0.367508,-0.9910802 -0.360255,-2.34611 0.01788,-3.3393652 0.26993,-0.7090368 0.915002,-1.6886973 1.557955,-2.1213684 0.543387,-0.3656686 1.192743,-0.5973356 1.846774,-0.6588623 0.328869,-0.030938 5.121784,-0.030841 5.5029554,1.107e-4 0.7192988,0.058409 1.4152311,0.2972485 1.9998451,0.6863345 0.2800227,0.1863673 0.9127228,1.053182 1.0990183,1.3330982 0.4619646,0.6941198 0.6718188,1.4744176 0.6718188,2.4980137 0,1.3068805 -0.4435493,2.3192095 -1.1762494,3.0502019 -0.311277,0.3105516 -0.7272991,0.5548302 -1.112007,0.7392042 -0.4682229,0.224399 -0.9364528,0.349437 -1.485826,0.396782 -0.3235661,0.02788 -5.3725362,0.02639 -5.6402622,-0.0017 z m 5.4148603,-1.5396194 c 1.1954305,-0.2530139 1.8132451,-0.7857236 2.0801638,-1.8130379 0.077559,-0.2985071 0.1008303,-0.5055014 0.1008303,-0.8968565 0,-0.5288288 -0.073154,-0.8860757 -0.2655588,-1.2968512 C -7.7914355,4.8146099 -7.743817,4.7635275 -7.9593942,4.5389773 -8.3608699,4.1207908 -8.8816607,3.8509087 -9.6035266,3.6869614 -9.820754,3.6376254 -9.8360348,3.6372584 -11.987669,3.6296894 c -2.382698,-0.00838 -2.344247,-0.019179 -2.824639,0.1157143 -1.151748,0.3234051 -1.8164,1.0074506 -2.029556,2.0835915 -0.05346,0.2698992 -0.05379,0.9369026 -6.09e-4,1.2019055 0.175053,0.8722557 0.477698,1.3492383 1.282407,1.7608569 0.35364,0.1808914 0.835855,0.3091509 1.241154,0.363694 0.03646,0.00491 1.065632,0.00767 2.287048,0.00614 l 2.2207574,-0.00278 z"
       id="path41"
       sodipodi:nodetypes="csssssssssssccccsssssssscssscc" /><path
       style="fill:none;fill-opacity:1;stroke:#000000;stroke-width:0.768;stroke-opacity:1"
       d="m -9.6467002,1.9347144 c 1.622106,0 4.255728,1.004844 4.255728,4.485695 0,3.408941 -2.409357,4.4856936 -4.255728,4.4856936 h -4.9812168 c -1.448711,0 -4.154033,-1.0527826 -4.154033,-4.4856936 0,-3.408942 2.684393,-4.485695 4.154034,-4.485695 z"
       id="path42"
       sodipodi:nodetypes="sssssss" /><path
       style="fill:none;fill-opacity:1;stroke:#000000;stroke-width:0.768002;stroke-opacity:1"
       d="m -10.382048,3.9002314 c 1.1431808,0 2.7603298,0.564547 2.7603298,2.520178 0,1.91523 -1.459098,2.520177 -2.7603298,2.520177 -1.15485,0 -2.37042,0 -3.51052,0 -1.020981,0 -2.760331,-0.59148 -2.760331,-2.520177 0,-1.915231 1.724601,-2.520178 2.760332,-2.520178 1.036848,0 2.340346,0 3.510519,0 z"
       id="path43"
       sodipodi:nodetypes="sssssss" /></g><g
     id="g37"
     transform="translate(24.397481)"><path
       style="fill:#878787;fill-opacity:1;stroke:none;stroke-width:0.768;stroke-opacity:1"
       d="m -14.98733,10.647916 c -0.751726,-0.07879 -1.586474,-0.4437 -2.166822,-0.9472348 -0.434707,-0.3771707 -0.899613,-1.054195 -1.115076,-1.6352445 -0.367508,-0.9910802 -0.360255,-2.34611 0.01788,-3.3393652 0.26993,-0.7090368 0.915002,-1.6886973 1.557955,-2.1213684 0.543387,-0.3656686 1.192743,-0.5973356 1.846774,-0.6588623 0.328869,-0.030938 5.121784,-0.030841 5.5029554,1.107e-4 0.7192988,0.058409 1.4152311,0.2972485 1.9998451,0.6863345 0.2800227,0.1863673 0.9127228,1.053182 1.0990183,1.3330982 0.4619646,0.6941198 0.6718188,1.4744176 0.6718188,2.4980137 0,1.3068805 -0.4435493,2.3192095 -1.1762494,3.0502019 -0.311277,0.3105516 -0.7272991,0.5548302 -1.112007,0.7392042 -0.4682229,0.224399 -0.9364528,0.349437 -1.485826,0.396782 -0.3235661,0.02788 -5.3725362,0.02639 -5.6402622,-0.0017 z m 5.4148603,-1.5396194 c 1.1954305,-0.2530139 1.8132451,-0.7857236 2.0801638,-1.8130379 0.077559,-0.2985071 0.1008303,-0.5055014 0.1008303,-0.8968565 0,-0.5288288 -0.073154,-0.8860757 -0.2655588,-1.2968512 C -7.7914355,4.8146099 -7.743817,4.7635275 -7.9593942,4.5389773 -8.3608699,4.1207908 -8.8816607,3.8509087 -9.6035266,3.6869614 -9.820754,3.6376254 -9.8360348,3.6372584 -11.987669,3.6296894 c -2.382698,-0.00838 -2.344247,-0.019179 -2.824639,0.1157143 -1.151748,0.3234051 -1.8164,1.0074506 -2.029556,2.0835915 -0.05346,0.2698992 -0.05379,0.9369026 -6.09e-4,1.2019055 0.175053,0.8722557 0.477698,1.3492383 1.282407,1.7608569 0.35364,0.1808914 0.835855,0.3091509 1.241154,0.363694 0.03646,0.00491 1.065632,0.00767 2.287048,0.00614 l 2.2207574,-0.00278 z"
       id="path37"
       sodipodi:nodetypes="csssssssssssccccsssssssscssscc" /><path
       style="fill:none;fill-opacity:1;stroke:#000000;stroke-width:0.768;stroke-opacity:1"
       d="m -9.6467002,1.9347144 c 1.622106,0 4.255728,1.004844 4.255728,4.485695 0,3.408941 -2.409357,4.4856936 -4.255728,4.4856936 h -4.9812168 c -1.448711,0 -4.154033,-1.0527826 -4.154033,-4.4856936 0,-3.408942 2.684393,-4.485695 4.154034,-4.485695 z"
       id="path34"
       sodipodi:nodetypes="sssssss" /><path
       style="fill:none;fill-opacity:1;stroke:#000000;stroke-width:0.768002;stroke-opacity:1"
       d="m -10.382048,3.9002314 c 1.1431808,0 2.7603298,0.564547 2.7603298,2.520178 0,1.91523 -1.459098,2.520177 -2.7603298,2.520177 -1.15485,0 -2.37042,0 -3.51052,0 -1.020981,0 -2.760331,-0.59148 -2.760331,-2.520177 0,-1.915231 1.724601,-2.520178 2.760332,-2.520178 1.036848,0 2.340346,0 3.510519,0 z"
       id="path35"
       sodipodi:nodetypes="sssssss" /></g><g
     id="g46"
     transform="translate(31.831225)"
     clip-path="url(#clipPath47)"><path
       style="fill:#878787;fill-opacity:1;stroke:none;stroke-width:0.768;stroke-opacity:1"
       d="m -14.98733,10.647916 c -0.751726,-0.07879 -1.586474,-0.4437 -2.166822,-0.9472348 -0.434707,-0.3771707 -0.899613,-1.054195 -1.115076,-1.6352445 -0.367508,-0.9910802 -0.360255,-2.34611 0.01788,-3.3393652 0.26993,-0.7090368 0.915002,-1.6886973 1.557955,-2.1213684 0.543387,-0.3656686 1.192743,-0.5973356 1.846774,-0.6588623 0.328869,-0.030938 5.121784,-0.030841 5.5029554,1.107e-4 0.7192988,0.058409 1.4152311,0.2972485 1.9998451,0.6863345 0.2800227,0.1863673 0.9127228,1.053182 1.0990183,1.3330982 0.4619646,0.6941198 0.6718188,1.4744176 0.6718188,2.4980137 0,1.3068805 -0.4435493,2.3192095 -1.1762494,3.0502019 -0.311277,0.3105516 -0.7272991,0.5548302 -1.112007,0.7392042 -0.4682229,0.224399 -0.9364528,0.349437 -1.485826,0.396782 -0.3235661,0.02788 -5.3725362,0.02639 -5.6402622,-0.0017 z m 5.4148603,-1.5396194 c 1.1954305,-0.2530139 1.8132451,-0.7857236 2.0801638,-1.8130379 0.077559,-0.2985071 0.1008303,-0.5055014 0.1008303,-0.8968565 0,-0.5288288 -0.073154,-0.8860757 -0.2655588,-1.2968512 C -7.7914355,4.8146099 -7.743817,4.7635275 -7.9593942,4.5389773 -8.3608699,4.1207908 -8.8816607,3.8509087 -9.6035266,3.6869614 -9.820754,3.6376254 -9.8360348,3.6372584 -11.987669,3.6296894 c -2.382698,-0.00838 -2.344247,-0.019179 -2.824639,0.1157143 -1.151748,0.3234051 -1.8164,1.0074506 -2.029556,2.0835915 -0.05346,0.2698992 -0.05379,0.9369026 -6.09e-4,1.2019055 0.175053,0.8722557 0.477698,1.3492383 1.282407,1.7608569 0.35364,0.1808914 0.835855,0.3091509 1.241154,0.363694 0.03646,0.00491 1.065632,0.00767 2.287048,0.00614 l 2.2207574,-0.00278 z"
       id="path44"
       sodipodi:nodetypes="csssssssssssccccsssssssscssscc" /><path
       style="fill:none;fill-opacity:1;stroke:#000000;stroke-width:0.768;stroke-opacity:1"
       d="m -9.6467002,1.9347144 c 1.622106,0 4.255728,1.004844 4.255728,4.485695 0,3.408941 -2.409357,4.4856936 -4.255728,4.4856936 h -4.9812168 c -1.448711,0 -4.154033,-1.0527826 -4.154033,-4.4856936 0,-3.408942 2.684393,-4.485695 4.154034,-4.485695 z"
       id="path45"
       sodipodi:nodetypes="sssssss" /><path
       style="fill:none;fill-opacity:1;stroke:#000000;stroke-width:0.768002;stroke-opacity:1"
       d="m -10.382048,3.9002314 c 1.1431808,0 2.7603298,0.564547 2.7603298,2.520178 0,1.91523 -1.459098,2.520177 -2.7603298,2.520177 -1.15485,0 -2.37042,0 -3.51052,0 -1.020981,0 -2.760331,-0.59148 -2.760331,-2.520177 0,-1.915231 1.724601,-2.520178 2.760332,-2.520178 1.036848,0 2.340346,0 3.510519,0 z"
       id="path46"
       sodipodi:nodetypes="sssssss" /></g></g></svg>
