<?xml version="1.0" encoding="UTF-8" standalone="no"?>
<!-- Created with Inkscape (http://www.inkscape.org/) -->

<svg
   width="12.09296mm"
   height="3.85849mm"
   viewBox="0 0 12.09296 3.8584901"
   version="1.1"
   id="svg21092"
   sodipodi:docname="logo_v1.svg"
   inkscape:version="1.4 (86a8ad7, 2024-10-11)"
   inkscape:export-filename="logo_v1.png"
   inkscape:export-xdpi="1000.06"
   inkscape:export-ydpi="1000.06"
   xmlns:inkscape="http://www.inkscape.org/namespaces/inkscape"
   xmlns:sodipodi="http://sodipodi.sourceforge.net/DTD/sodipodi-0.dtd"
   xmlns:xlink="http://www.w3.org/1999/xlink"
   xmlns="http://www.w3.org/2000/svg"
   xmlns:svg="http://www.w3.org/2000/svg">
  <sodipodi:namedview
     id="namedview21094"
     pagecolor="#ffffff"
     bordercolor="#666666"
     borderopacity="1.0"
     inkscape:pageshadow="2"
     inkscape:pageopacity="0.0"
     inkscape:pagecheckerboard="0"
     inkscape:document-units="mm"
     showgrid="false"
     inkscape:zoom="8.0000002"
     inkscape:cx="39.624999"
     inkscape:cy="-15"
     inkscape:window-width="2400"
     inkscape:window-height="1262"
     inkscape:window-x="4792"
     inkscape:window-y="-8"
     inkscape:window-maximized="1"
     inkscape:current-layer="layer1"
     showguides="false"
     inkscape:guide-bbox="true"
     inkscape:snap-global="false"
     fit-margin-top="0"
     fit-margin-left="0"
     fit-margin-right="0"
     fit-margin-bottom="0"
     inkscape:showpageshadow="2"
     inkscape:deskcolor="#d1d1d1">
    <sodipodi:guide
       position="-27.824028,11.861702"
       orientation="1,0"
       id="guide48778"
       inkscape:locked="false" />
    <sodipodi:guide
       position="-19.101019,9.6283322"
       orientation="1,0"
       id="guide48894"
       inkscape:locked="false" />
    <sodipodi:guide
       position="-30.279568,16.503842"
       orientation="1,0"
       id="guide50063"
       inkscape:locked="false" />
    <sodipodi:guide
       position="-24.140719,19.041232"
       orientation="1,0"
       id="guide50103"
       inkscape:locked="false" />
    <inkscape:grid
       type="xygrid"
       id="grid51230"
       originx="-146.19269"
       originy="-104.644"
       spacingy="1"
       spacingx="1"
       units="mm"
       visible="false" />
  </sodipodi:namedview>
  <defs
     id="defs21089">
    <rect
       x="262.5"
       y="45.5"
       width="74.5"
       height="14.5"
       id="rect21619" />
    <linearGradient
       id="linearGradient2530"
       inkscape:swatch="solid">
      <stop
         style="stop-color:#c90000;stop-opacity:1;"
         offset="0"
         id="stop2528" />
    </linearGradient>
    <linearGradient
       inkscape:collect="always"
       id="linearGradient37537">
      <stop
         style="stop-color:#ffd109;stop-opacity:1"
         offset="0"
         id="stop37531" />
      <stop
         style="stop-color:#eb3131;stop-opacity:1"
         offset="0.49999911"
         id="stop37533" />
      <stop
         style="stop-color:#ffd109;stop-opacity:1"
         offset="1"
         id="stop37535" />
    </linearGradient>
    <marker
       style="overflow:visible"
       id="marker24991"
       refX="0"
       refY="0"
       orient="auto"
       inkscape:stockid="Arrow1Mend"
       inkscape:isstock="true">
      <path
         transform="matrix(-0.4,0,0,-0.4,-4,0)"
         style="fill:context-stroke;fill-rule:evenodd;stroke:context-stroke;stroke-width:1pt"
         d="M 0,0 5,-5 -12.5,0 5,5 Z"
         id="path24989" />
    </marker>
    <marker
       style="overflow:visible"
       id="Arrow1Mend"
       refX="0"
       refY="0"
       orient="auto"
       inkscape:stockid="Arrow1Mend"
       inkscape:isstock="true">
      <path
         transform="matrix(-0.4,0,0,-0.4,-4,0)"
         style="fill:context-stroke;fill-rule:evenodd;stroke:context-stroke;stroke-width:1pt"
         d="M 0,0 5,-5 -12.5,0 5,5 Z"
         id="path1307" />
    </marker>
    <linearGradient
       inkscape:collect="always"
       xlink:href="#linearGradient37537"
       id="linearGradient39186"
       gradientUnits="userSpaceOnUse"
       gradientTransform="translate(29.919954,2.664754)"
       x1="130.33951"
       y1="141.15344"
       x2="132.52426"
       y2="141.15344" />
  </defs>
  <g
     inkscape:label="Ebene 1"
     inkscape:groupmode="layer"
     id="layer1"
     transform="translate(-146.19268,-104.644)">
    <text
       xml:space="preserve"
       transform="matrix(0.26458333,0,0,0.26458333,104.81275,86.368865)"
       id="text21617"
       style="font-style:normal;font-variant:normal;font-weight:normal;font-stretch:normal;font-size:9.33333px;line-height:125%;font-family:Arial;-inkscape-font-specification:'Arial, Normal';font-variant-ligatures:normal;font-variant-position:normal;font-variant-caps:normal;font-variant-numeric:normal;font-variant-alternates:normal;font-variant-east-asian:normal;font-feature-settings:normal;font-variation-settings:normal;text-indent:0;text-align:start;text-decoration:none;text-decoration-line:none;text-decoration-style:solid;text-decoration-color:#000000;letter-spacing:0px;word-spacing:0px;text-transform:none;writing-mode:lr-tb;direction:ltr;text-orientation:mixed;dominant-baseline:auto;baseline-shift:baseline;white-space:pre;shape-inside:url(#rect21619);shape-padding:0;shape-margin:0;inline-size:0;display:inline;opacity:1;vector-effect:none;fill:#000000;fill-opacity:1;stroke:none;stroke-width:1px;stroke-linecap:butt;stroke-linejoin:round;stroke-miterlimit:4;stroke-dasharray:none;stroke-dashoffset:0;stroke-opacity:1;stop-color:#000000;stop-opacity:1" />
    <g
       id="g10"
       transform="translate(0.51366306)">
      <rect
         style="fill:#ffeb00;fill-opacity:1;fill-rule:evenodd;stroke:none;stroke-width:0.264999;stroke-linecap:square;stroke-opacity:1"
         id="rect7"
         width="9.5013561"
         height="0.7755397"
         x="147.25859"
         y="106.23571" />
      <path
         style="font-size:3.52777px;line-height:125%;font-family:'Bauhaus 93';-inkscape-font-specification:'Bauhaus 93, ';letter-spacing:0px;word-spacing:0px;fill:#707070;fill-opacity:1;stroke-width:0.264582px;stroke-linejoin:round"
         d="m 149.50684,106.23534 v 0.78018 c -0.073,0.005 -0.11355,0.004 -0.16223,0.004 -0.15537,0 -0.23307,0.11886 -0.23307,0.35646 v 1.08079 h -0.85457 v -1.2453 c 0,-0.32904 0.0899,-0.59105 0.26962,-0.78604 0.17976,-0.1965 0.36895,-0.18557 0.66904,-0.18782 0.19476,-0.001 0.18509,-0.004 0.31121,-0.001 z"
         id="path9" />
      <path
         style="font-size:3.52777px;line-height:125%;font-family:'Bauhaus 93';-inkscape-font-specification:'Bauhaus 93, ';letter-spacing:0px;word-spacing:0px;fill:#0e00ff;fill-opacity:1;stroke-width:0.264582px;stroke-linejoin:round"
         d="m 146.8992,106.13069 c 0.32293,0 0.59942,0.1166 0.82943,0.3496 0.23155,0.23154 0.34732,0.50955 0.34732,0.83402 0,0.32904 -0.11726,0.60933 -0.35188,0.84087 -0.23307,0.23154 -0.51488,0.34731 -0.84543,0.34731 -0.33057,0 -0.61314,-0.11581 -0.84774,-0.34731 -0.23459,-0.23307 -0.35188,-0.51336 -0.35188,-0.84087 0,-0.33361 0.11727,-0.6139 0.35188,-0.84088 0.2346,-0.22849 0.52403,-0.34274 0.8683,-0.34274 z m -0.0228,0.84316 c -0.0914,0 -0.16909,0.0336 -0.23307,0.10054 -0.0639,0.0655 -0.0959,0.14627 -0.0959,0.24221 0,0.0945 0.032,0.17518 0.0959,0.24221 0.0655,0.067 0.14323,0.10055 0.23307,0.10055 0.0914,0 0.16909,-0.0336 0.23307,-0.10055 0.0655,-0.067 0.0983,-0.14777 0.0983,-0.24221 0,-0.096 -0.032,-0.1767 -0.0959,-0.24221 -0.0641,-0.067 -0.14248,-0.10054 -0.23537,-0.10054 z"
         id="text5" />
      <path
         style="font-size:3.88056px;line-height:125%;font-family:'Bauhaus 93';-inkscape-font-specification:'Bauhaus 93, ';letter-spacing:0px;word-spacing:0px;fill:#0e00ff;fill-opacity:1;stroke-width:0.264582px;stroke-linejoin:round"
         d="m 157.77198,104.72945 v 3.43089 h -1.02047 v -3.43089 z"
         id="path8" />
      <path
         style="font-size:3.88056px;line-height:125%;font-family:'Bauhaus 93';-inkscape-font-specification:'Bauhaus 93, ';letter-spacing:0px;word-spacing:0px;fill:#707070;fill-opacity:1;stroke-width:0.264582px;stroke-linejoin:round"
         d="m 156.13069,104.72945 v 2.22443 q 0,0.58815 -0.3519,0.94003 -0.34936,0.3519 -0.93249,0.3519 -0.58061,0 -0.88977,-0.34184 -0.30663,-0.34183 -0.30663,-0.98277 v -2.19175 h 1.02046 v 2.18924 q 0,0.31418 0.22369,0.31418 0.21617,0 0.21617,-0.31418 v -2.18924 z"
         id="path7" />
      <path
         style="font-size:3.88056px;line-height:125%;font-family:'Bauhaus 93';-inkscape-font-specification:'Bauhaus 93, ';letter-spacing:0px;word-spacing:0px;fill:#0e00ff;fill-opacity:1;stroke-width:0.264582px;stroke-linejoin:round"
         d="m 152.01865,106.23754 h 0.97271 q 0.31419,0.38958 0.31419,0.82191 0,0.50269 -0.36949,0.84452 -0.36696,0.34184 -0.90485,0.34184 -0.69873,0 -1.18636,-0.53035 -0.48761,-0.53034 -0.48761,-1.29193 0,-0.76409 0.49516,-1.27181 0.49766,-0.50772 1.24165,-0.50772 0.25387,0 0.56302,0.10307 v 1.02046 q -0.24129,-0.11315 -0.43985,-0.11315 -0.35943,0 -0.58816,0.2237 -0.22621,0.22371 -0.22621,0.58062 0,0.36445 0.21112,0.5781 0.21114,0.21364 0.57056,0.21364 0.22873,0 0.22873,-0.13321 0,-0.10055 -0.15081,-0.10055 h -0.2438 z"
         id="text4" />
      <circle
         style="fill:#cb00cb;fill-opacity:1;fill-rule:evenodd;stroke:none;stroke-width:0.264999;stroke-linecap:square;stroke-opacity:1"
         id="path10"
         cx="152.77579"
         cy="106.61827"
         r="0.38587037" />
    </g>
  </g>
</svg>
