<?xml version="1.0" encoding="UTF-8" standalone="no"?>
<svg
   id="svg16"
   enable-background="new 0 0 32 32"
   version="1.1"
   viewBox="0 0 32 32"
   xml:space="preserve"
   sodipodi:docname="orguiicon.svg"
   inkscape:version="1.3.2 (091e20e, 2023-11-25, custom)"
   inkscape:export-filename="I:\icons\max.png"
   inkscape:export-xdpi="96"
   inkscape:export-ydpi="96"
   xmlns:inkscape="http://www.inkscape.org/namespaces/inkscape"
   xmlns:sodipodi="http://sodipodi.sourceforge.net/DTD/sodipodi-0.dtd"
   xmlns="http://www.w3.org/2000/svg"
   xmlns:svg="http://www.w3.org/2000/svg"
   xmlns:rdf="http://www.w3.org/1999/02/22-rdf-syntax-ns#"
   xmlns:cc="http://creativecommons.org/ns#"
   xmlns:dc="http://purl.org/dc/elements/1.1/"><defs
   id="defs10" /><sodipodi:namedview
   pagecolor="#ffffff"
   bordercolor="#666666"
   borderopacity="1"
   objecttolerance="10"
   gridtolerance="10"
   guidetolerance="10"
   inkscape:pageopacity="0"
   inkscape:pageshadow="2"
   inkscape:window-width="1920"
   inkscape:window-height="1017"
   id="namedview8"
   showgrid="false"
   inkscape:zoom="7.375"
   inkscape:cx="22.576271"
   inkscape:cy="39.932203"
   inkscape:window-x="1912"
   inkscape:window-y="-8"
   inkscape:window-maximized="1"
   inkscape:current-layer="svg16"
   inkscape:showpageshadow="2"
   inkscape:pagecheckerboard="0"
   inkscape:deskcolor="#d1d1d1" /><metadata
   id="metadata22"><rdf:RDF><cc:Work
       rdf:about=""><dc:format>image/svg+xml</dc:format><dc:type
         rdf:resource="http://purl.org/dc/dcmitype/StillImage" /></cc:Work></rdf:RDF></metadata><rect
   style="fill:#ffeb00;fill-opacity:1;fill-rule:evenodd;stroke:none;stroke-width:1.00157;stroke-linecap:square;stroke-opacity:1"
   id="rect1"
   width="24.844992"
   height="2.9311738"
   x="2.0817688"
   y="21.576729" /><path
   style="opacity:1;vector-effect:none;fill:none;fill-opacity:1;fill-rule:evenodd;stroke:#f7941e;stroke-width:1.87799931;stroke-linecap:round;stroke-linejoin:round;stroke-miterlimit:4;stroke-dasharray:none;stroke-dashoffset:0;stroke-opacity:1"
   d="m -87.263382,14.697171 -11.453455,0.04563 6.479643,7.164113 -7.209745,7.939845 h 13.461233"
   id="path817"
   inkscape:connector-curvature="0" />
<rect
   style="fill:#ffeb00;fill-opacity:1;fill-rule:evenodd;stroke:none;stroke-width:1.00157;stroke-linecap:square;stroke-opacity:1"
   id="rect7"
   width="21.321564"
   height="2.9311738"
   x="8.0717192"
   y="4.5180683" /><path
   style="font-size:3.52777px;line-height:125%;font-family:'Bauhaus 93';-inkscape-font-specification:'Bauhaus 93, ';letter-spacing:0px;word-spacing:0px;fill:#707070;fill-opacity:1;stroke-width:0.999995px;stroke-linejoin:round"
   d="m 16.569039,4.5166693 v 2.9487119 c -0.275905,0.018898 -0.429165,0.015118 -0.613153,0.015118 -0.587225,0 -0.880894,0.4492346 -0.880894,1.3472504 V 12.912626 H 11.845121 V 8.2059796 c 0,-1.2436158 0.33978,-2.2338898 1.019036,-2.9708599 0.679408,-0.7426771 1.394457,-0.7013669 2.528655,-0.7098708 0.736101,-0.00378 0.699553,-0.015118 1.176227,-0.00378 z"
   id="path9" /><path
   style="font-size:3.52777px;line-height:125%;font-family:'Bauhaus 93';-inkscape-font-specification:'Bauhaus 93, ';letter-spacing:0px;word-spacing:0px;fill:#0e00ff;fill-opacity:1;stroke-width:0.999995px;stroke-linejoin:round"
   d="m 6.7133918,4.1211418 c 1.2205229,0 2.2655242,0.4406929 3.1348535,1.3213228 0.8751497,0.8751118 1.3127057,1.9258583 1.3127057,3.1522016 0,1.2436158 -0.443187,2.3029798 -1.3299397,3.1780918 -0.8808953,0.875112 -1.9460037,1.312668 -3.1953266,1.312668 -1.2493984,0 -2.3173795,-0.437707 -3.2040567,-1.312668 C 2.5449886,10.891863 2.1016878,9.8325 2.1016878,8.5946662 2.1016878,7.333778 2.544913,6.2744142 3.431628,5.4165371 4.3183052,4.5529528 5.4122139,4.1211418 6.7133918,4.1211418 Z m -0.086173,3.1867465 c -0.3454488,0 -0.6390803,0.1269921 -0.8808945,0.3799937 -0.2415118,0.247559 -0.3624567,0.5528315 -0.3624567,0.9154393 0,0.3571654 0.1209449,0.6620977 0.3624567,0.9154397 0.247559,0.253228 0.5413417,0.380032 0.8808945,0.380032 0.3454488,0 0.6390803,-0.126993 0.8808945,-0.380032 C 7.7556721,9.265532 7.8796406,8.9602599 7.8796406,8.6033213 7.8796406,8.2404867 7.7586958,7.9354788 7.517184,7.687882 7.2749162,7.4346536 6.9786769,7.3078883 6.6275965,7.3078883 Z"
   id="text5" /><path
   style="font-size:3.88056px;line-height:125%;font-family:'Bauhaus 93';-inkscape-font-specification:'Bauhaus 93, ';letter-spacing:0px;word-spacing:0px;fill:#0e00ff;fill-opacity:1;stroke-width:0.999997px;stroke-linejoin:round"
   d="M 29.366686,17.314181 V 27.827307 H 26.239704 V 17.314181 Z"
   id="path8" /><path
   style="font-size:3.88056px;line-height:125%;font-family:'Bauhaus 93';-inkscape-font-specification:'Bauhaus 93, ';letter-spacing:0px;word-spacing:0px;fill:#707070;fill-opacity:1;stroke-width:0.999997px;stroke-linejoin:round"
   d="m 24.337353,17.314181 v 6.816223 q 0,1.802243 -1.078312,2.880494 -1.070528,1.078311 -2.857388,1.078311 -1.779139,0 -2.726484,-1.047485 -0.939593,-1.047455 -0.939593,-3.01146 v -6.716083 h 3.126952 v 6.708392 q 0,0.962728 0.685443,0.962728 0.6624,0 0.6624,-0.962728 v -6.708392 z"
   id="path7" /><path
   style="font-size:3.88056px;line-height:125%;font-family:'Bauhaus 93';-inkscape-font-specification:'Bauhaus 93, ';letter-spacing:0px;word-spacing:0px;fill:#0e00ff;fill-opacity:1;stroke-width:0.999997px;stroke-linejoin:round"
   d="m 11.737008,21.935355 h 2.980633 q 0.962758,1.193773 0.962758,2.518543 0,1.540371 -1.132211,2.587826 -1.12446,1.047485 -2.772693,1.047485 -2.1410881,0 -3.6353109,-1.625128 -1.4941625,-1.625098 -1.4941625,-3.958805 0,-2.341368 1.5172973,-3.897152 1.524958,-1.555784 3.8047341,-1.555784 0.777922,0 1.725237,0.315833 v 3.126951 q -0.739374,-0.346721 -1.347813,-0.346721 -1.101385,0 -1.802273,0.685474 -0.6931651,0.685505 -0.6931651,1.779169 0,1.116768 0.6469261,1.771447 0.646987,0.654647 1.748341,0.654647 0.700888,0 0.700888,-0.408189 0,-0.308112 -0.462121,-0.308112 h -0.747065 z"
   id="text4" /><circle
   style="fill:#cb00cb;fill-opacity:1;fill-rule:evenodd;stroke:none;stroke-width:1.00157;stroke-linecap:square;stroke-opacity:1"
   id="path10"
   cx="14.057072"
   cy="23.102013"
   r="1.1824057" /></svg>
